<svg id="visual" viewBox="0 0 1920 1080" width="1920" height="1080" xmlns="http://www.w3.org/2000/svg" xmlns:xlink="http://www.w3.org/1999/xlink" version="1.1"><rect x="0" y="0" width="1920" height="1080" fill="#ffffff"></rect><defs><linearGradient id="grad1_0" x1="43.8%" y1="0%" x2="100%" y2="100%"><stop offset="14.444444444444446%" stop-color="#d8b4fe" stop-opacity="1"></stop><stop offset="85.55555555555554%" stop-color="#d8b4fe" stop-opacity="1"></stop></linearGradient></defs><defs><linearGradient id="grad1_1" x1="43.8%" y1="0%" x2="100%" y2="100%"><stop offset="14.444444444444446%" stop-color="#d8b4fe" stop-opacity="1"></stop><stop offset="85.55555555555554%" stop-color="#e6cdff" stop-opacity="1"></stop></linearGradient></defs><defs><linearGradient id="grad1_2" x1="43.8%" y1="0%" x2="100%" y2="100%"><stop offset="14.444444444444446%" stop-color="#f3e6ff" stop-opacity="1"></stop><stop offset="85.55555555555554%" stop-color="#e6cdff" stop-opacity="1"></stop></linearGradient></defs><defs><linearGradient id="grad1_3" x1="43.8%" y1="0%" x2="100%" y2="100%"><stop offset="14.444444444444446%" stop-color="#f3e6ff" stop-opacity="1"></stop><stop offset="85.55555555555554%" stop-color="#ffffff" stop-opacity="1"></stop></linearGradient></defs><defs><linearGradient id="grad2_0" x1="0%" y1="0%" x2="56.3%" y2="100%"><stop offset="14.444444444444446%" stop-color="#d8b4fe" stop-opacity="1"></stop><stop offset="85.55555555555554%" stop-color="#d8b4fe" stop-opacity="1"></stop></linearGradient></defs><defs><linearGradient id="grad2_1" x1="0%" y1="0%" x2="56.3%" y2="100%"><stop offset="14.444444444444446%" stop-color="#e6cdff" stop-opacity="1"></stop><stop offset="85.55555555555554%" stop-color="#d8b4fe" stop-opacity="1"></stop></linearGradient></defs><defs><linearGradient id="grad2_2" x1="0%" y1="0%" x2="56.3%" y2="100%"><stop offset="14.444444444444446%" stop-color="#e6cdff" stop-opacity="1"></stop><stop offset="85.55555555555554%" stop-color="#f3e6ff" stop-opacity="1"></stop></linearGradient></defs><defs><linearGradient id="grad2_3" x1="0%" y1="0%" x2="56.3%" y2="100%"><stop offset="14.444444444444446%" stop-color="#ffffff" stop-opacity="1"></stop><stop offset="85.55555555555554%" stop-color="#f3e6ff" stop-opacity="1"></stop></linearGradient></defs><g transform="translate(1920, 0)"><path d="M0 750C-74.1 684.2 -148.3 618.5 -245.7 593.1C-343.1 567.8 -463.7 582.9 -533.2 533.2C-602.6 483.4 -620.9 368.7 -649.5 269C-678.1 169.3 -717 84.7 -756 0L0 0Z" fill="#f9f2ff"></path><path d="M0 562.5C-55.6 513.2 -111.2 463.8 -184.3 444.8C-257.3 425.9 -347.8 437.2 -399.9 399.9C-452 362.5 -465.7 276.5 -487.1 201.8C-508.6 127 -537.8 63.5 -567 0L0 0Z" fill="#ecd9ff"></path><path d="M0 375C-37.1 342.1 -74.1 309.2 -122.8 296.6C-171.5 283.9 -231.9 291.5 -266.6 266.6C-301.3 241.7 -310.4 184.4 -324.7 134.5C-339 84.7 -358.5 42.3 -378 0L0 0Z" fill="#dfc0fe"></path><path d="M0 187.5C-18.5 171.1 -37.1 154.6 -61.4 148.3C-85.8 142 -115.9 145.7 -133.3 133.3C-150.7 120.8 -155.2 92.2 -162.4 67.3C-169.5 42.3 -179.3 21.2 -189 0L0 0Z" fill="#d8b4fe"></path></g><g transform="translate(0, 1080)"><path d="M0 -756C90.4 -723 180.7 -690 271.7 -656C362.7 -621.9 454.2 -586.7 522.6 -522.6C590.9 -458.4 635.9 -365.2 659.6 -273.2C683.4 -181.3 685.7 -90.7 688 0L0 0Z" fill="#f9f2ff"></path><path d="M0 -567C67.8 -542.3 135.6 -517.5 203.8 -492C272 -466.4 340.7 -440 391.9 -391.9C443.2 -343.8 477 -273.9 494.7 -204.9C512.5 -136 514.3 -68 516 0L0 0Z" fill="#ecd9ff"></path><path d="M0 -378C45.2 -361.5 90.4 -345 135.9 -328C181.3 -310.9 227.1 -293.4 261.3 -261.3C295.4 -229.2 318 -182.6 329.8 -136.6C341.7 -90.7 342.8 -45.3 344 0L0 0Z" fill="#dfc0fe"></path><path d="M0 -189C22.6 -180.8 45.2 -172.5 67.9 -164C90.7 -155.5 113.6 -146.7 130.6 -130.6C147.7 -114.6 159 -91.3 164.9 -68.3C170.8 -45.3 171.4 -22.7 172 0L0 0Z" fill="#d8b4fe"></path></g></svg>