<svg xmlns="http://www.w3.org/2000/svg" xmlns:xlink="http://www.w3.org/1999/xlink" viewBox="0,0,256,256" width="500px" height="500px" fill-rule="nonzero"><g transform="translate(-46.08,-46.08) scale(1.36,1.36)"><g fill-opacity="0" fill="#dddddd" fill-rule="nonzero" stroke="none" stroke-width="1" stroke-linecap="butt" stroke-linejoin="miter" stroke-miterlimit="10" stroke-dasharray="" stroke-dashoffset="0" font-family="none" font-weight="none" font-size="none" text-anchor="none" style="mix-blend-mode: normal"><path d="M33.88235,222.11765v-188.23529h188.23529v188.23529z" id="bgRectangle"></path></g><g fill="none" fill-rule="nonzero" stroke-opacity="0" stroke="#ffffff" stroke-width="2.56" stroke-linecap="butt" stroke-linejoin="miter" stroke-miterlimit="10" stroke-dasharray="" stroke-dashoffset="0" font-family="none" font-weight="none" font-size="none" text-anchor="none" style="mix-blend-mode: normal"><path d="M81.7896,220.4208c-25.5213,0 -46.2104,-20.6891 -46.2104,-46.2104v-92.4208c0,-25.5213 20.6891,-46.2104 46.2104,-46.2104h92.4208c25.5213,0 46.2104,20.6891 46.2104,46.2104v92.4208c0,25.5213 -20.6891,46.2104 -46.2104,46.2104z" id="shape"></path></g><g fill="none" fill-rule="nonzero" stroke="none" stroke-width="1" stroke-linecap="butt" stroke-linejoin="miter" stroke-miterlimit="10" stroke-dasharray="" stroke-dashoffset="0" font-family="none" font-weight="none" font-size="none" text-anchor="none" style="mix-blend-mode: normal"><g transform="translate(-10.23232,0) scale(2.56,2.56)"><g><path d="M87.212,57.157c1.135,-2.155 1.785,-4.605 1.785,-7.21c0,-6.621 -4.159,-12.257 -10.001,-14.478c0,-0.008 0.001,-0.015 0.001,-0.022c0,-11.598 -9.402,-21 -21,-21c-9.784,0 -17.981,6.701 -20.313,15.757c-1.476,-0.485 -3.048,-0.757 -4.687,-0.757c-7.692,0 -14.023,5.793 -14.89,13.252c-5.204,1.1 -9.11,5.716 -9.11,11.248c0,6.351 5.149,11.5 11.5,11.5c0.177,0 0.352,-0.012 0.526,-0.022c-0.004,0.175 -0.026,0.346 -0.026,0.522c0,11.322 9.178,20.5 20.5,20.5c6.437,0 12.175,-2.972 15.934,-7.614c2.178,2.225 5.207,3.614 8.566,3.614c4.65,0 8.674,-2.65 10.666,-6.518c1.052,0.334 2.171,0.518 3.334,0.518c6.075,0 11,-4.925 11,-11c0,-3.311 -1.47,-6.274 -3.785,-8.29z" fill="#ff008d"></path><path d="M69,37h-6.003c-2.485,-0.053 -4.5,-2.068 -4.5,-4.553c0,-2.333 1.782,-4.229 4.055,-4.455c-0.022,-0.181 -0.055,-0.358 -0.055,-0.545c0,-2.485 2.015,-4.5 4.5,-4.5c1.438,0 2.703,0.686 3.527,1.736c0.14,-2.636 2.302,-4.736 4.973,-4.736c2.761,0 5,2.239 5,5c0,0.446 -0.077,0.87 -0.187,1.282c0.642,-0.777 1.6,-1.282 2.687,-1.282c1.781,0 3.234,1.335 3.455,3.055c0.181,-0.022 0.358,-0.055 0.545,-0.055c2.485,0 4.5,2.015 4.5,4.5c0,2.485 -2.015,4.5 -4.5,4.553h-9.5h-5.497v1h-3z" fill="#ffffff"></path><path d="M75.5,19c3.033,0 5.5,2.467 5.5,5.5c0,0.016 0,0.031 0,0.047c0.602,-0.355 1.29,-0.547 2,-0.547c1.831,0 3.411,1.261 3.858,3.005c0.047,-0.003 0.094,-0.005 0.142,-0.005c3.099,0 5.549,2.834 4.893,6.047c-0.48,2.351 -2.689,3.953 -5.089,3.953h-14.679c-0.276,0 -0.5,-0.224 -0.5,-0.5c0,-0.276 0.224,-0.5 0.5,-0.5h14.718c1.92,0 3.687,-1.282 4.071,-3.163c0.525,-2.57 -1.435,-4.837 -3.914,-4.837c-0.117,0 -0.23,0.017 -0.343,0.032l-0.141,0.019c-0.021,0.003 -0.041,0.004 -0.062,0.004c-0.246,0 -0.462,-0.185 -0.495,-0.437c-0.191,-1.493 -1.463,-2.618 -2.959,-2.618c-0.885,0 -1.723,0.401 -2.301,1.1c-0.098,0.118 -0.241,0.182 -0.386,0.182c-0.078,0 -0.156,-0.018 -0.228,-0.056c-0.209,-0.107 -0.314,-0.346 -0.254,-0.573c0.16,-0.6 0.202,-1.069 0.147,-1.549c-0.24,-2.127 -1.959,-3.909 -4.092,-4.088c-2.551,-0.215 -4.725,1.728 -4.859,4.246c-0.011,0.208 -0.15,0.387 -0.349,0.45c-0.05,0.016 -0.101,0.024 -0.152,0.024c-0.15,0 -0.296,-0.069 -0.392,-0.192c-0.772,-0.981 -1.913,-1.544 -3.134,-1.544c-2.206,0 -4,1.794 -4,4c0,0.117 0.017,0.23 0.032,0.343l0.019,0.141c0.016,0.134 -0.022,0.268 -0.106,0.373c-0.084,0.105 -0.207,0.172 -0.34,0.185c-2.352,0.234 -4.042,2.429 -3.504,4.865c0.408,1.853 2.174,3.093 4.072,3.093h5.952c0.276,0 0.5,0.224 0.5,0.5c0,0.276 -0.224,0.5 -0.5,0.5h-5.938c-2.467,0 -4.708,-1.704 -5.115,-4.138c-0.462,-2.763 1.344,-5.22 3.931,-5.74c-0.002,-0.04 -0.003,-0.081 -0.003,-0.122c0,-2.757 2.243,-5 5,-5c1.176,0 2.293,0.416 3.183,1.164c0.598,-2.404 2.762,-4.164 5.317,-4.164z" fill="#000000"></path><path d="M76.997,26.447c1.403,0 2.609,0.999 2.913,2.341c0.367,-0.222 0.786,-0.341 1.212,-0.341c1.202,0 2.198,0.897 2.353,2.068c0.203,-0.045 0.396,-0.068 0.585,-0.068c1.529,0 2.811,1.2 2.918,2.732c0.009,0.138 -0.094,0.257 -0.232,0.267c-0.006,0 -0.012,0 -0.018,0c-0.13,0 -0.24,-0.101 -0.249,-0.232c-0.089,-1.271 -1.151,-2.268 -2.419,-2.268c-0.229,0 -0.47,0.042 -0.738,0.127c-0.022,0.007 -0.045,0.01 -0.067,0.01c-0.055,0 -0.11,-0.02 -0.156,-0.054c-0.064,-0.047 -0.102,-0.129 -0.102,-0.209c0,-1.034 -0.841,-1.875 -1.875,-1.875c-0.447,0 -0.885,0.168 -1.231,0.473c-0.047,0.041 -0.106,0.063 -0.165,0.063c-0.032,0 -0.063,-0.006 -0.093,-0.019c-0.088,-0.035 -0.148,-0.117 -0.155,-0.212c-0.102,-1.292 -1.191,-2.305 -2.479,-2.305c-0.208,0 -0.425,0.034 -0.682,0.107c-0.023,0.007 -0.047,0.01 -0.07,0.01c-0.109,0 -0.207,-0.073 -0.239,-0.182c-0.038,-0.133 0.039,-0.271 0.172,-0.309c0.3,-0.084 0.561,-0.124 0.817,-0.124z" fill="#000000"></path><path d="M26.402,80h-9.905c-0.276,0 -0.5,-0.224 -0.5,-0.5c0,-0.276 0.224,-0.5 0.5,-0.5h9.905c0.276,0 0.5,0.224 0.5,0.5c0,0.276 -0.223,0.5 -0.5,0.5z" fill="#ffffff"></path><path d="M29.497,80h-1c-0.276,0 -0.5,-0.224 -0.5,-0.5c0,-0.276 0.224,-0.5 0.5,-0.5h1c0.276,0 0.5,0.224 0.5,0.5c0,0.276 -0.223,0.5 -0.5,0.5z" fill="#ffffff"></path><path d="M34.488,82h-8.991c-0.276,0 -0.5,-0.224 -0.5,-0.5c0,-0.276 0.224,-0.5 0.5,-0.5h8.991c0.276,0 0.5,0.224 0.5,0.5c0,0.276 -0.224,0.5 -0.5,0.5z" fill="#ffffff"></path><path d="M23.497,82h-1c-0.276,0 -0.5,-0.224 -0.5,-0.5c0,-0.276 0.224,-0.5 0.5,-0.5h1c0.276,0 0.5,0.224 0.5,0.5c0,0.276 -0.223,0.5 -0.5,0.5z" fill="#ffffff"></path><path d="M20.497,82h-2c-0.276,0 -0.5,-0.224 -0.5,-0.5c0,-0.276 0.224,-0.5 0.5,-0.5h2c0.276,0 0.5,0.224 0.5,0.5c0,0.276 -0.223,0.5 -0.5,0.5z" fill="#ffffff"></path><path d="M26.497,84h-2c-0.276,0 -0.5,-0.224 -0.5,-0.5c0,-0.276 0.224,-0.5 0.5,-0.5h2c0.276,0 0.5,0.224 0.5,0.5c0,0.276 -0.224,0.5 -0.5,0.5z" fill="#ffffff"></path><path d="M29.497,75c-0.177,0 -0.823,0 -1,0c-0.276,0 -0.5,0.224 -0.5,0.5c0,0.276 0.224,0.5 0.5,0.5c0.177,0 0.823,0 1,0c0.276,0 0.5,-0.224 0.5,-0.5c0,-0.276 -0.224,-0.5 -0.5,-0.5z" fill="#ffffff"></path><path d="M29.497,77c-0.177,0 -4.823,0 -5,0c-0.276,0 -0.5,0.224 -0.5,0.5c0,0.276 0.224,0.5 0.5,0.5c0.177,0 4.823,0 5,0c0.276,0 0.5,-0.224 0.5,-0.5c0,-0.276 -0.224,-0.5 -0.5,-0.5z" fill="#ffffff"></path><path d="M34.497,79c-0.177,0 -2.823,0 -3,0c-0.276,0 -0.5,0.224 -0.5,0.5c0,0.276 0.224,0.5 0.5,0.5c0.177,0 2.823,0 3,0c0.276,0 0.5,-0.224 0.5,-0.5c0,-0.276 -0.224,-0.5 -0.5,-0.5z" fill="#ffffff"></path><g fill="#ffffff"><path d="M89.497,66h-10c-0.276,0 -0.5,-0.224 -0.5,-0.5c0,-0.276 0.224,-0.5 0.5,-0.5h10c0.276,0 0.5,0.224 0.5,0.5c0,0.276 -0.224,0.5 -0.5,0.5z"></path><path d="M93.497,66h-2c-0.276,0 -0.5,-0.224 -0.5,-0.5c0,-0.276 0.224,-0.5 0.5,-0.5h2c0.276,0 0.5,0.224 0.5,0.5c0,0.276 -0.224,0.5 -0.5,0.5z"></path><path d="M98.497,68h-10c-0.276,0 -0.5,-0.224 -0.5,-0.5c0,-0.276 0.224,-0.5 0.5,-0.5h10c0.276,0 0.5,0.224 0.5,0.5c0,0.276 -0.223,0.5 -0.5,0.5z"></path><path d="M86.497,68h-1c-0.276,0 -0.5,-0.224 -0.5,-0.5c0,-0.276 0.224,-0.5 0.5,-0.5h1c0.276,0 0.5,0.224 0.5,0.5c0,0.276 -0.224,0.5 -0.5,0.5z"></path><path d="M83.372,68h-1.875c-0.276,0 -0.5,-0.224 -0.5,-0.5c0,-0.276 0.224,-0.5 0.5,-0.5h1.875c0.276,0 0.5,0.224 0.5,0.5c0,0.276 -0.224,0.5 -0.5,0.5z"></path><path d="M92.497,64h-5c-0.276,0 -0.5,-0.224 -0.5,-0.5c0,-0.276 0.224,-0.5 0.5,-0.5h5c0.276,0 0.5,0.224 0.5,0.5c0,0.276 -0.223,0.5 -0.5,0.5z"></path><path d="M89.497,70h-2c-0.276,0 -0.5,-0.224 -0.5,-0.5c0,-0.276 0.224,-0.5 0.5,-0.5h2c0.276,0 0.5,0.224 0.5,0.5c0,0.276 -0.224,0.5 -0.5,0.5z"></path></g><g fill="#b200ff"><path d="M69.208,75h-33.416c-2.647,0 -4.792,-2.145 -4.792,-4.792v-33.416c0,-2.647 2.145,-4.792 4.792,-4.792h33.417c2.646,0 4.791,2.145 4.791,4.792v33.417c0,2.646 -2.145,4.791 -4.792,4.791z"></path></g><g fill="#ffffff"><path d="M69.5,54c-0.276,0 -0.5,-0.224 -0.5,-0.5c0,-4.369 -1.691,-8.487 -4.762,-11.596c-0.194,-0.196 -0.192,-0.513 0.004,-0.707c0.196,-0.194 0.513,-0.192 0.707,0.004c3.257,3.297 5.051,7.665 5.051,12.299c0,0.276 -0.224,0.5 -0.5,0.5z"></path><path d="M40.217,42.248c-0.124,0 -0.249,-0.046 -0.346,-0.139c-0.199,-0.191 -0.206,-0.507 -0.016,-0.707c3.334,-3.483 7.825,-5.402 12.645,-5.402c3.604,0 7.066,1.087 10.011,3.144c0.227,0.158 0.282,0.47 0.124,0.696c-0.16,0.227 -0.473,0.281 -0.696,0.124c-2.777,-1.939 -6.041,-2.964 -9.439,-2.964c-4.545,0 -8.778,1.809 -11.922,5.094c-0.099,0.102 -0.229,0.154 -0.361,0.154z"></path><path d="M35.5,54c-0.276,0 -0.5,-0.224 -0.5,-0.5c0,-3.574 1.07,-7.012 3.097,-9.942c0.157,-0.228 0.469,-0.283 0.695,-0.127c0.228,0.157 0.284,0.468 0.127,0.696c-1.909,2.762 -2.919,6.003 -2.919,9.373c0,0.276 -0.224,0.5 -0.5,0.5z"></path><path d="M52.5,71c-8.407,0 -15.64,-5.987 -17.195,-14.235c-0.052,-0.271 0.127,-0.533 0.398,-0.584c0.267,-0.05 0.533,0.127 0.584,0.399c1.467,7.776 8.286,13.42 16.213,13.42c4.419,0 8.57,-1.724 11.688,-4.854c0.195,-0.196 0.512,-0.196 0.707,-0.001c0.196,0.195 0.196,0.511 0.002,0.707c-3.308,3.32 -7.71,5.148 -12.397,5.148z"></path><path d="M66.192,64.078c-0.104,0 -0.207,-0.032 -0.297,-0.098c-0.222,-0.164 -0.27,-0.477 -0.105,-0.699c1.374,-1.864 2.322,-3.951 2.82,-6.202c0.06,-0.269 0.319,-0.441 0.597,-0.38c0.27,0.06 0.439,0.327 0.38,0.596c-0.528,2.389 -1.535,4.602 -2.992,6.58c-0.098,0.133 -0.249,0.203 -0.403,0.203z"></path><path d="M51.581,49.824c-0.176,-3.098 -2.857,-4.268 -4.02,-4.48c-0.012,-0.002 -0.02,0.007 -0.032,0.006c-0.322,-0.072 -0.655,-0.121 -1.002,-0.121c-2.284,0 -4.135,1.646 -4.135,3.676c0,2.03 1.851,3.676 4.135,3.676c0.135,0 0.269,-0.006 0.401,-0.018c0.464,-0.042 0.888,0.293 0.965,0.752c0.05,0.298 0.038,0.694 -0.102,1.219c-0.459,1.723 -2.199,4.122 -3.101,5.284c-0.984,1.267 0.002,2.931 1.749,1.755c-0.001,0 5.568,-4.273 5.142,-11.749z"></path><path d="M62.608,49.824c-0.176,-3.098 -2.857,-4.268 -4.02,-4.48c-0.012,-0.002 -0.02,0.007 -0.032,0.006c-0.322,-0.072 -0.655,-0.121 -1.002,-0.121c-2.284,0 -4.135,1.646 -4.135,3.676c0,2.03 1.851,3.676 4.135,3.676c0.138,0 0.273,-0.007 0.407,-0.019c0.46,-0.042 0.879,0.291 0.957,0.746c0.052,0.298 0.04,0.697 -0.101,1.226c-0.459,1.723 -2.199,4.122 -3.101,5.284c-0.984,1.267 0.002,2.931 1.749,1.755c0,0 5.569,-4.273 5.143,-11.749z"></path></g><g fill="#000000"><path d="M68.625,32.4c2.743,0 4.975,2.232 4.975,4.975v32.25c0,2.743 -2.232,4.975 -4.975,4.975h-32.25c-2.743,0 -4.975,-2.232 -4.975,-4.975v-32.25c0,-2.743 2.232,-4.975 4.975,-4.975h32.25M68.625,31h-32.25c-3.521,0 -6.375,2.854 -6.375,6.375v32.25c0,3.521 2.854,6.375 6.375,6.375h32.25c3.521,0 6.375,-2.854 6.375,-6.375v-32.25c0,-3.521 -2.854,-6.375 -6.375,-6.375z"></path></g><g><path d="M21,60h-3.003c-1.933,-0.053 -3.5,-1.62 -3.5,-3.553c0,-1.781 1.335,-3.234 3.055,-3.455c-0.028,-0.179 -0.055,-0.358 -0.055,-0.545c0,-1.933 1.567,-3.5 3.5,-3.5c1.032,0 1.95,0.455 2.59,1.165c0.384,-1.808 1.987,-3.165 3.91,-3.165c2.209,0 4,1.791 4,4c0,0.191 -0.03,0.374 -0.056,0.558c0.428,-0.344 0.965,-0.558 1.556,-0.558c1.228,0 2.245,0.887 2.455,2.055c0.179,-0.028 0.358,-0.055 0.545,-0.055c1.933,0 3.5,1.567 3.5,3.5c0,1.933 -1.567,3.5 -3.5,3.553h-7.997v0h-7z" fill="#ffffff"></path><path d="M19.747,55.447c0.138,0 0.25,-0.112 0.25,-0.25c0,-1.223 -0.995,-2.218 -2.218,-2.218c-0.034,0.009 -0.737,-0.001 -1.244,0.136c-0.133,0.036 -0.212,0.173 -0.176,0.306c0.036,0.134 0.173,0.213 0.306,0.176c0.444,-0.12 1.1,-0.12 1.113,-0.118c0.948,0 1.719,0.771 1.719,1.718c0,0.138 0.112,0.25 0.25,0.25z" fill="#000000"></path><circle cx="26.5" cy="59.5" r="0.5" fill="#000000"></circle><path d="M14.165,57.157c0.505,1.732 2.204,2.843 4.008,2.843h3.324c0.276,0 0.5,-0.224 0.5,-0.5c0,-0.276 -0.224,-0.5 -0.5,-0.5h-3.395c-1.243,0 -2.435,-0.701 -2.886,-1.859c-0.755,-1.939 0.536,-3.861 2.399,-4.1c0.134,-0.018 0.255,-0.088 0.336,-0.196c0.081,-0.108 0.115,-0.244 0.094,-0.377c-0.024,-0.153 -0.049,-0.308 -0.049,-0.468c0,-1.654 1.346,-3 3,-3c0.85,0 1.638,0.355 2.219,1c0.125,0.139 0.321,0.198 0.5,0.148c0.182,-0.049 0.321,-0.195 0.36,-0.379c0.342,-1.604 1.781,-2.769 3.422,-2.769c1.93,0 3.5,1.57 3.5,3.5c0,0.143 -0.021,0.28 -0.041,0.418c-0.029,0.203 0.063,0.438 0.242,0.54c0.179,0.102 0.396,0.118 0.556,-0.01c0.364,-0.293 0.794,-0.448 1.243,-0.448c0.966,0 1.792,0.691 1.963,1.644c0.048,0.267 0.296,0.446 0.569,0.405c0.153,-0.024 0.308,-0.049 0.468,-0.049c1.97,0 3.503,1.908 2.846,3.974c-0.396,1.244 -1.637,2.026 -2.942,2.026h-7.404c-0.276,0 -0.5,0.224 -0.5,0.5c0,0.276 0.224,0.5 0.5,0.5h7.343c1.92,0 3.687,-1.282 4.071,-3.163c0.525,-2.57 -1.435,-4.837 -3.914,-4.837c-0.059,0 -0.116,0.002 -0.174,0.006c-0.414,-1.186 -1.537,-2.006 -2.826,-2.006c-0.349,0 -0.689,0.061 -1.011,0.18c-0.165,-2.333 -2.116,-4.18 -4.489,-4.18c-1.831,0 -3.466,1.127 -4.153,2.774c-0.681,-0.498 -1.502,-0.774 -2.347,-0.774c-2.206,0 -4,1.794 -4,4c0,0.048 0.001,0.095 0.004,0.142c-2.102,0.54 -3.504,2.727 -2.836,5.015z" fill="#000000"></path><path d="M23.497,59c0.159,0 0.841,0 1,0c0.276,0 0.5,0.224 0.5,0.5c0,0.276 -0.224,0.5 -0.5,0.5c-0.159,0 -0.841,0 -1,0c-0.276,0 -0.5,-0.224 -0.5,-0.5c0,-0.276 0.224,-0.5 0.5,-0.5z" fill="#000000"></path></g></g></g></g></g></svg>