<svg id="visual" viewBox="0 0 1920 540" width="1920" height="540" xmlns="http://www.w3.org/2000/svg" xmlns:xlink="http://www.w3.org/1999/xlink" version="1.1"><rect x="0" y="0" width="1920" height="540" fill="#ffffff"></rect><path d="M0 336L35.5 347.3C71 358.7 142 381.3 213.2 391C284.3 400.7 355.7 397.3 426.8 384.8C498 372.3 569 350.7 640 343.5C711 336.3 782 343.7 853.2 354.5C924.3 365.3 995.7 379.7 1066.8 382.5C1138 385.3 1209 376.7 1280 373.3C1351 370 1422 372 1493.2 365.3C1564.3 358.7 1635.7 343.3 1706.8 337.7C1778 332 1849 336 1884.5 338L1920 340L1920 541L1884.5 541C1849 541 1778 541 1706.8 541C1635.7 541 1564.3 541 1493.2 541C1422 541 1351 541 1280 541C1209 541 1138 541 1066.8 541C995.7 541 924.3 541 853.2 541C782 541 711 541 640 541C569 541 498 541 426.8 541C355.7 541 284.3 541 213.2 541C142 541 71 541 35.5 541L0 541Z" fill="#d8b4fe"></path><path d="M0 423L35.5 415C71 407 142 391 213.2 386.5C284.3 382 355.7 389 426.8 397.2C498 405.3 569 414.7 640 410.5C711 406.3 782 388.7 853.2 377.5C924.3 366.3 995.7 361.7 1066.8 370.2C1138 378.7 1209 400.3 1280 404.2C1351 408 1422 394 1493.2 389.2C1564.3 384.3 1635.7 388.7 1706.8 389.8C1778 391 1849 389 1884.5 388L1920 387L1920 541L1884.5 541C1849 541 1778 541 1706.8 541C1635.7 541 1564.3 541 1493.2 541C1422 541 1351 541 1280 541C1209 541 1138 541 1066.8 541C995.7 541 924.3 541 853.2 541C782 541 711 541 640 541C569 541 498 541 426.8 541C355.7 541 284.3 541 213.2 541C142 541 71 541 35.5 541L0 541Z" fill="#c998ff"></path><path d="M0 447L35.5 440.3C71 433.7 142 420.3 213.2 415.2C284.3 410 355.7 413 426.8 419.5C498 426 569 436 640 437C711 438 782 430 853.2 426.2C924.3 422.3 995.7 422.7 1066.8 421.2C1138 419.7 1209 416.3 1280 416.3C1351 416.3 1422 419.7 1493.2 418.7C1564.3 417.7 1635.7 412.3 1706.8 411.3C1778 410.3 1849 413.7 1884.5 415.3L1920 417L1920 541L1884.5 541C1849 541 1778 541 1706.8 541C1635.7 541 1564.3 541 1493.2 541C1422 541 1351 541 1280 541C1209 541 1138 541 1066.8 541C995.7 541 924.3 541 853.2 541C782 541 711 541 640 541C569 541 498 541 426.8 541C355.7 541 284.3 541 213.2 541C142 541 71 541 35.5 541L0 541Z" fill="#b97cff"></path><path d="M0 424L35.5 431.7C71 439.3 142 454.7 213.2 454.5C284.3 454.3 355.7 438.7 426.8 435.5C498 432.3 569 441.7 640 444.3C711 447 782 443 853.2 441.7C924.3 440.3 995.7 441.7 1066.8 443.5C1138 445.3 1209 447.7 1280 448C1351 448.3 1422 446.7 1493.2 443.8C1564.3 441 1635.7 437 1706.8 433.2C1778 429.3 1849 425.7 1884.5 423.8L1920 422L1920 541L1884.5 541C1849 541 1778 541 1706.8 541C1635.7 541 1564.3 541 1493.2 541C1422 541 1351 541 1280 541C1209 541 1138 541 1066.8 541C995.7 541 924.3 541 853.2 541C782 541 711 541 640 541C569 541 498 541 426.8 541C355.7 541 284.3 541 213.2 541C142 541 71 541 35.5 541L0 541Z" fill="#a75eff"></path><path d="M0 467L35.5 469.8C71 472.7 142 478.3 213.2 477.7C284.3 477 355.7 470 426.8 471.2C498 472.3 569 481.7 640 483.7C711 485.7 782 480.3 853.2 477C924.3 473.7 995.7 472.3 1066.8 474.3C1138 476.3 1209 481.7 1280 483.8C1351 486 1422 485 1493.2 484.2C1564.3 483.3 1635.7 482.7 1706.8 482.7C1778 482.7 1849 483.3 1884.5 483.7L1920 484L1920 541L1884.5 541C1849 541 1778 541 1706.8 541C1635.7 541 1564.3 541 1493.2 541C1422 541 1351 541 1280 541C1209 541 1138 541 1066.8 541C995.7 541 924.3 541 853.2 541C782 541 711 541 640 541C569 541 498 541 426.8 541C355.7 541 284.3 541 213.2 541C142 541 71 541 35.5 541L0 541Z" fill="#933dff"></path><path d="M0 508L35.5 508.5C71 509 142 510 213.2 511.7C284.3 513.3 355.7 515.7 426.8 513.8C498 512 569 506 640 502.7C711 499.3 782 498.7 853.2 499.7C924.3 500.7 995.7 503.3 1066.8 502.7C1138 502 1209 498 1280 496.7C1351 495.3 1422 496.7 1493.2 500.2C1564.3 503.7 1635.7 509.3 1706.8 509C1778 508.7 1849 502.3 1884.5 499.2L1920 496L1920 541L1884.5 541C1849 541 1778 541 1706.8 541C1635.7 541 1564.3 541 1493.2 541C1422 541 1351 541 1280 541C1209 541 1138 541 1066.8 541C995.7 541 924.3 541 853.2 541C782 541 711 541 640 541C569 541 498 541 426.8 541C355.7 541 284.3 541 213.2 541C142 541 71 541 35.5 541L0 541Z" fill="#7b00ff"></path></svg>